<svg width="102" height="18" viewBox="0 0 102 18" fill="none" xmlns="http://www.w3.org/2000/svg">
<g clip-path="url(#clip0_135_3354)">
<path d="M1.58449 16.5385C0.68955 15.2762 0.245296 13.7627 0.32001 12.2308V5.84615C0.211634 4.29774 0.628071 2.75746 1.50546 1.46154C2.37478 0.461538 3.71829 0 5.69403 0C7.66978 0 8.93425 0.461538 9.72455 1.30769C10.5826 2.37941 11.0046 3.72136 10.91 5.07692V6.61539H7.03754V4.84615C7.06881 4.32289 6.98808 3.799 6.80045 3.30769C6.70016 3.10938 6.5412 2.9448 6.34403 2.83513C6.14686 2.72547 5.92049 2.67572 5.69403 2.69231C5.14082 2.69231 4.74568 2.84615 4.58762 3.23077C4.40883 3.77733 4.32862 4.34988 4.35053 4.92308V13.1538C4.30879 13.71 4.4178 14.267 4.66665 14.7692C4.8247 15.1538 5.21985 15.3077 5.77306 15.3077C6.32627 15.3077 6.64239 15.1538 6.80045 14.7692C6.98013 14.2494 7.06049 13.7019 7.03754 13.1538V11.3077H10.91V12.8462C10.9904 14.2238 10.5708 15.5852 9.72455 16.6923C8.93425 17.6154 7.59075 18.0769 5.69403 18.0769C3.79732 18 2.37478 17.5385 1.58449 16.5385Z" fill="#111111"/>
<path d="M15.5727 0.23077H20.0774L23.3967 17.7692H19.7613L19.1291 14.0769H16.5211L15.8889 17.7692H12.1745L15.5727 0.23077ZM18.813 11.7692L17.8646 4.92308L16.9163 11.7692H18.813Z" fill="#111111"/>
<path d="M26.1627 3.15385H23.4757V0.23077H32.8802V3.07692H30.1932V17.7692H26.1627V3.15385Z" fill="#111111"/>
<path d="M40.0719 0.23077H47.0266V2.07692H42.5219V7.84615H46.1572V9.61539H42.5219V16.0769H47.0266V17.8462H39.9929V0.23077H40.0719Z" fill="#111111"/>
<path d="M49.0813 0.23077H50.82L55.9569 11.8462V0.23077H58.0117V17.7692H56.4311L51.2151 5.76923V17.7692H49.0813V0.23077Z" fill="#111111"/>
<path d="M60.3826 0.23077H67.3372V2.07692H62.8325V7.84615H66.4679V9.61539H62.8325V16.0769H67.3372V17.8462H60.3826V0.23077Z" fill="#111111"/>
<path d="M69.392 0.230769H73.0274C74.4575 0.134617 75.8787 0.514353 77.0579 1.30769C77.9272 2 78.3224 3.23077 78.3224 4.84615C78.3224 7.07692 77.6111 8.46154 76.1095 8.92308L78.6385 17.6923H76.1886L73.8177 9.46154H71.8419V17.6923H69.313V0.230769H69.392ZM72.8693 7.76923C73.684 7.83458 74.4961 7.61652 75.1612 7.15385C75.6354 6.76923 75.8724 6 75.8724 4.84615C75.8944 4.27296 75.8141 3.7004 75.6354 3.15385C75.4575 2.76166 75.152 2.4373 74.766 2.23077C74.2217 1.98934 73.6242 1.8836 73.0274 1.92308H71.921V7.69231H72.8693V7.76923Z" fill="#111111"/>
<path d="M81.4835 16.4615C80.662 15.1166 80.2764 13.5617 80.3771 12V6.15384C80.3576 5.03911 80.4905 3.9268 80.7722 2.84615C81.0367 2.03863 81.5637 1.33668 82.2738 0.846152C83.1562 0.337748 84.1742 0.0967294 85.1979 0.153844C86.8575 0.153844 88.043 0.53846 88.7542 1.38461C89.5724 2.50191 89.9638 3.86237 89.8607 5.23077V5.84615H87.4898V5.30769C87.4933 4.66346 87.4405 4.0201 87.3317 3.38461C87.2651 2.98303 87.0378 2.62348 86.6995 2.38461C86.2553 2.10082 85.7281 1.96579 85.1979 2C84.6313 1.96466 84.0704 2.12843 83.6173 2.46154C83.4314 2.61401 83.2795 2.80181 83.1708 3.01344C83.062 3.22507 82.9989 3.45608 82.9851 3.69231C82.8809 4.37999 82.8281 5.07411 82.827 5.76923V12.3077C82.7688 13.3038 82.9304 14.3006 83.3012 15.2308C83.6173 15.8462 84.2495 16.0769 85.1979 16.0769C85.5723 16.1223 85.9522 16.0589 86.2897 15.8947C86.6272 15.7304 86.9073 15.4727 87.0946 15.1538C87.5122 14.1811 87.7012 13.1299 87.6478 12.0769V10.8462H85.356V9.07692H89.9397V17.7692H88.3591L88.122 15.7692C87.9148 16.4395 87.4834 17.0231 86.8963 17.4273C86.3092 17.8315 85.6001 18.0331 84.8818 18C84.2288 18.0374 83.5765 17.9164 82.9833 17.6479C82.3902 17.3794 81.8749 16.9717 81.4835 16.4615Z" fill="#111111"/>
<path d="M94.9976 11.6154L91.1252 0.307691H93.496L96.2621 8.76923L98.9491 0.307691H101.32L97.4475 11.6154V17.7692H95.0766V11.6154H94.9976Z" fill="#111111"/>
</g>
<defs>
<clipPath id="clip0_135_3354">
<rect width="101" height="18" fill="white" transform="translate(0.32)"/>
</clipPath>
</defs>
</svg>
